<svg width="513" height="400" viewBox="0 0 513 400" fill="none" xmlns="http://www.w3.org/2000/svg">
<path d="M477.457 6.92718C481.726 10.1758 485.621 13.7823 489.5 17.4819C490.029 17.9832 490.557 18.4844 491.102 19.0009C502.358 29.7373 512.281 39.7062 512.901 55.9741C513.15 72.1085 507.42 81.4241 496.309 92.9041C493.567 95.6978 490.798 98.4646 488.026 101.23C486.768 102.492 485.51 103.756 484.253 105.019C480.817 108.469 477.375 111.912 473.932 115.355C470.212 119.077 466.498 122.804 462.783 126.531C454.671 134.666 446.551 142.793 438.43 150.92C433.357 155.996 428.286 161.073 423.215 166.151C409.166 180.219 395.117 194.286 381.06 208.345C380.162 209.244 379.263 210.142 378.338 211.068C376.517 212.889 374.696 214.711 372.875 216.532C371.971 217.436 371.067 218.34 370.136 219.272C368.778 220.629 368.778 220.629 367.393 222.015C352.715 236.696 338.049 251.39 323.388 266.088C308.325 281.189 293.252 296.281 278.171 311.363C269.707 319.827 261.247 328.296 252.798 336.774C245.607 343.989 238.408 351.196 231.197 358.391C227.52 362.062 223.846 365.736 220.184 369.421C216.829 372.796 213.463 376.16 210.087 379.515C208.87 380.728 207.658 381.946 206.45 383.168C191.716 398.065 191.716 398.065 181.523 399.111C161.829 398.752 151.563 384.696 138.425 371.568C137.034 370.182 135.644 368.796 134.253 367.411C130.502 363.674 126.756 359.933 123.01 356.192C120.665 353.85 118.32 351.509 115.975 349.169C108.625 341.832 101.276 334.493 93.931 327.152C85.4736 318.699 77.0098 310.253 68.5402 301.812C61.975 295.268 55.4156 288.719 48.8605 282.165C44.9528 278.259 41.0427 274.354 37.1266 270.456C33.446 266.792 29.7727 263.121 26.1047 259.444C24.7617 258.1 23.4163 256.759 22.068 255.421C10.332 243.766 0.198386 232.913 0 215.544C0.217192 198.072 9.43569 188.189 21.3125 176.294C22.151 175.431 22.9896 174.568 23.8535 173.679C33.7896 163.697 44.0916 157.284 58.375 157.044C74.589 157.165 83.9602 165.621 94.8535 176.608C96.2013 177.956 96.2013 177.956 97.5762 179.33C100.018 181.772 102.454 184.219 104.889 186.668C107.442 189.234 110.001 191.794 112.56 194.355C117.394 199.196 122.224 204.042 127.051 208.889C132.552 214.412 138.058 219.929 143.564 225.446C154.883 236.785 166.194 248.131 177.5 259.482C183.542 254.479 189.06 249.052 194.589 243.493C195.6 242.48 196.611 241.468 197.622 240.456C200.386 237.688 203.147 234.917 205.908 232.146C208.891 229.152 211.878 226.161 214.863 223.17C220.033 217.991 225.201 212.809 230.369 207.627C238.538 199.435 246.712 191.247 254.887 183.061C257.687 180.258 260.486 177.454 263.285 174.651C263.984 173.951 264.684 173.25 265.404 172.529C273.358 164.563 281.311 156.596 289.264 148.629C289.991 147.901 290.717 147.173 291.466 146.423C303.248 134.618 315.027 122.81 326.804 111C338.904 98.8686 351.009 86.7425 363.119 74.6214C370.585 67.1484 378.046 59.6707 385.501 52.1869C390.609 47.0598 395.722 41.9381 400.84 36.8207C403.792 33.869 406.741 30.9149 409.684 27.9541C412.38 25.2417 415.082 22.5363 417.791 19.8363C419.228 18.3998 420.658 16.9559 422.088 15.5117C437.243 0.449775 458.327 -5.9788 477.457 6.92718Z" fill="white"/>
</svg>
