<svg width="502" height="353" viewBox="0 0 502 353" fill="none" xmlns="http://www.w3.org/2000/svg">
<path d="M168.664 21.6816C162.791 25.5416 156.882 29.3139 150.866 32.9482C141.398 38.6719 132.078 44.6187 122.757 50.5786C118.089 53.5619 113.415 56.5365 108.741 59.5107C107.829 60.0917 106.916 60.6726 105.976 61.2712C97.7477 66.506 89.504 71.7156 81.2556 76.9179C78.9002 78.4039 76.5453 79.8907 74.1907 81.3779C73.0115 82.1226 73.0115 82.1226 71.8086 82.8823C70.2291 83.8802 68.6498 84.8786 67.0708 85.8774C63.0203 88.4387 58.9641 90.9903 54.8977 93.5263C28.9948 109.705 9.56169 126.019 1.79224 156.581C-3.13288 179.988 2.36893 202.681 14.9094 222.519C16.8129 225.246 18.8056 227.826 20.929 230.386C21.8029 231.465 21.8029 231.465 22.6946 232.565C30.5259 241.256 41.158 247.136 50.929 253.386C51.8237 253.96 52.7185 254.534 53.6404 255.125C58.1536 258.018 62.6764 260.895 67.2063 263.761C73.2316 267.573 79.2377 271.415 85.2415 275.261C86.802 276.26 86.802 276.26 88.394 277.279C91.5725 279.314 94.7508 281.35 97.929 283.386C110.818 291.641 123.711 299.889 136.628 308.102C143.506 312.476 150.376 316.866 157.241 321.261C158.273 321.92 159.305 322.58 160.369 323.26C165.258 326.387 170.143 329.52 175.014 332.676C176.705 333.772 178.398 334.866 180.092 335.958C182.208 337.325 184.322 338.696 186.432 340.071C201.44 349.746 215.304 355.206 233.312 351.733C246.177 347.82 257.274 339.892 263.784 327.995C267.188 320.783 269.06 315.414 269.027 307.433C269.024 306.442 269.024 306.442 269.022 305.432C269.017 303.333 269.004 301.234 268.991 299.136C268.986 297.709 268.982 296.282 268.978 294.854C268.967 291.365 268.95 287.875 268.929 284.386C270.293 284.388 270.293 284.388 271.685 284.391C293.863 284.436 316.042 284.469 338.22 284.489C348.945 284.5 359.67 284.514 370.396 284.537C379.749 284.557 389.102 284.569 398.455 284.574C403.403 284.576 408.351 284.583 413.299 284.597C417.966 284.611 422.633 284.615 427.3 284.612C429.003 284.612 430.706 284.616 432.41 284.624C453.392 284.715 470.709 282.215 486.925 267.585C497.414 256.676 501.231 242.889 501.219 228.215C501.226 227.004 501.233 225.794 501.24 224.546C501.256 221.24 501.262 217.934 501.263 214.628C501.265 212.557 501.269 210.485 501.274 208.414C501.293 201.171 501.301 193.927 501.3 186.684C501.298 179.96 501.319 173.236 501.351 166.513C501.377 160.718 501.388 154.923 501.387 149.128C501.386 145.677 501.392 142.226 501.413 138.775C501.433 134.918 501.427 131.061 501.415 127.203C501.426 126.079 501.437 124.955 501.449 123.797C501.332 108.908 495.231 96.3114 485.191 85.4873C475.658 76.6292 463.498 71.2338 450.527 71.241C449.78 71.2374 449.032 71.2339 448.261 71.2303C445.754 71.2196 443.247 71.2159 440.74 71.2121C438.942 71.2058 437.145 71.1991 435.348 71.1919C431.478 71.1772 427.608 71.1655 423.737 71.1559C417.62 71.1405 411.502 71.1165 405.385 71.091C387.989 71.0198 370.593 70.96 353.197 70.9089C343.59 70.8806 333.983 70.8453 324.376 70.8023C318.292 70.7755 312.208 70.7576 306.124 70.7462C302.343 70.7371 298.561 70.7197 294.78 70.7C293.024 70.6925 291.268 70.6885 289.512 70.688C287.118 70.687 284.724 70.6737 282.33 70.6575C281.284 70.6614 281.284 70.6614 280.216 70.6654C276.644 70.6273 273.912 70.4515 270.929 68.3857C269.655 65.8387 269.786 63.9933 269.753 61.1435C269.299 38.0704 269.299 38.0704 264.929 29.3857C264.506 28.5246 264.083 27.6635 263.648 26.7763C257.046 14.6732 246.783 6.64526 233.929 2.01071C208.364 -5.17293 189.181 8.18329 168.664 21.6816Z" fill="#FEC006"/>
<path d="M168.664 21.6816C162.791 25.5416 156.882 29.3139 150.866 32.9482C141.398 38.6719 132.078 44.6187 122.757 50.5786C118.089 53.5619 113.415 56.5365 108.741 59.5107C107.829 60.0917 106.916 60.6726 105.976 61.2712C97.7477 66.506 89.504 71.7156 81.2556 76.9179C78.9002 78.4039 76.5453 79.8907 74.1907 81.3779C73.0115 82.1226 73.0115 82.1226 71.8086 82.8823C70.2291 83.8802 68.6498 84.8786 67.0708 85.8774C63.0203 88.4387 58.9641 90.9903 54.8977 93.5263C28.9948 109.705 9.56169 126.019 1.79224 156.581C-3.13288 179.988 2.36893 202.681 14.9094 222.519C16.8129 225.246 18.8056 227.826 20.929 230.386C21.8029 231.465 21.8029 231.465 22.6946 232.565C30.5259 241.256 41.158 247.136 50.929 253.386C51.8237 253.96 52.7185 254.534 53.6404 255.125C58.1536 258.018 62.6764 260.895 67.2063 263.761C73.2316 267.573 79.2377 271.415 85.2415 275.261C86.802 276.26 86.802 276.26 88.394 277.279C91.5725 279.314 94.7508 281.35 97.929 283.386C110.818 291.641 123.711 299.889 136.628 308.102C143.506 312.476 150.376 316.866 157.241 321.261C158.273 321.92 159.305 322.58 160.369 323.26C165.258 326.387 170.143 329.52 175.014 332.676C176.705 333.772 178.398 334.866 180.092 335.958C182.208 337.325 184.322 338.696 186.432 340.071C201.44 349.746 215.304 355.206 233.312 351.733C246.177 347.82 257.274 339.892 263.784 327.995C267.188 320.783 269.06 315.414 269.027 307.433C269.024 306.442 269.024 306.442 269.022 305.432C269.017 303.333 269.004 301.234 268.991 299.136C268.986 297.709 268.982 296.282 268.978 294.854C268.967 291.365 268.95 287.875 268.929 284.386C270.293 284.388 270.293 284.388 271.685 284.391C293.863 284.436 316.042 284.469 338.22 284.489C348.945 284.5 359.67 284.514 370.396 284.537C379.749 284.557 389.102 284.569 398.455 284.574C403.403 284.576 408.351 284.583 413.299 284.597C417.966 284.611 422.633 284.615 427.3 284.612C429.003 284.612 430.706 284.616 432.41 284.624C453.392 284.715 470.709 282.215 486.925 267.585C497.414 256.676 501.231 242.889 501.219 228.215C501.226 227.004 501.233 225.794 501.24 224.546C501.256 221.24 501.262 217.934 501.263 214.628C501.265 212.557 501.269 210.485 501.274 208.414C501.293 201.171 501.301 193.927 501.3 186.684C501.298 179.96 501.319 173.236 501.351 166.513C501.377 160.718 501.388 154.923 501.387 149.128C501.386 145.677 501.392 142.226 501.413 138.775C501.433 134.918 501.427 131.061 501.415 127.203C501.426 126.079 501.437 124.955 501.449 123.797C501.332 108.908 495.231 96.3114 485.191 85.4873C475.658 76.6292 463.498 71.2338 450.527 71.241C449.78 71.2374 449.032 71.2339 448.261 71.2303C445.754 71.2196 443.247 71.2159 440.74 71.2121C438.942 71.2058 437.145 71.1991 435.348 71.1919C431.478 71.1772 427.608 71.1655 423.737 71.1559C417.62 71.1405 411.502 71.1165 405.385 71.091C387.989 71.0198 370.593 70.96 353.197 70.9089C343.59 70.8806 333.983 70.8453 324.376 70.8023C318.292 70.7755 312.208 70.7576 306.124 70.7462C302.343 70.7371 298.561 70.7197 294.78 70.7C293.024 70.6925 291.268 70.6885 289.512 70.688C287.118 70.687 284.724 70.6737 282.33 70.6575C281.284 70.6614 281.284 70.6614 280.216 70.6654C276.644 70.6273 273.912 70.4515 270.929 68.3857C269.655 65.8387 269.786 63.9933 269.753 61.1435C269.299 38.0704 269.299 38.0704 264.929 29.3857C264.506 28.5246 264.083 27.6635 263.648 26.7763C257.046 14.6732 246.783 6.64526 233.929 2.01071C208.364 -5.17293 189.181 8.18329 168.664 21.6816ZM248.292 26.2568C253.783 33.3982 257.027 41.2256 257.07 50.1826C257.089 51.3066 257.108 52.4307 257.128 53.5888C257.162 55.9376 257.18 58.2867 257.183 60.6357C257.316 66.7728 257.769 71.4724 261.08 76.7109C269.046 83.9279 278.424 82.9448 288.477 82.884C290.265 82.8878 292.053 82.8935 293.841 82.9007C297.681 82.9127 301.52 82.9122 305.36 82.9021C311.438 82.8865 317.515 82.9003 323.592 82.9182C335.4 82.949 347.207 82.9505 359.015 82.9485C374.037 82.9471 389.058 82.9575 404.08 82.9971C410.116 83.012 416.151 83.0118 422.186 82.9996C425.948 82.9949 429.711 83.0024 433.473 83.0132C435.21 83.0156 436.948 83.0129 438.685 83.0046C453.854 82.9364 465.565 84.9453 477.226 95.456C485.488 104.122 489.081 113.799 489.074 125.592C489.078 126.416 489.081 127.241 489.084 128.091C489.094 130.818 489.096 133.545 489.097 136.272C489.1 138.173 489.104 140.074 489.107 141.975C489.113 145.962 489.115 149.949 489.114 153.936C489.114 159.029 489.128 164.122 489.145 169.215C489.156 173.143 489.158 177.072 489.158 181C489.159 182.876 489.163 184.753 489.171 186.63C489.181 189.264 489.178 191.898 489.172 194.533C489.177 195.298 489.183 196.064 489.189 196.853C489.117 209.386 484.904 220.09 476.304 229.276C467.878 236.759 458.372 240.717 447.118 240.631C445.984 240.634 445.984 240.634 444.827 240.637C442.311 240.643 439.795 240.634 437.279 240.625C435.468 240.626 433.657 240.628 431.847 240.631C427.955 240.636 424.064 240.635 420.172 240.63C414.015 240.622 407.859 240.633 401.702 240.647C384.198 240.684 366.693 240.703 349.188 240.691C339.515 240.685 329.842 240.696 320.168 240.728C314.051 240.746 307.934 240.743 301.817 240.723C298.008 240.717 294.199 240.73 290.39 240.75C288.628 240.755 286.865 240.752 285.103 240.739C269.035 240.632 269.035 240.632 263.295 245.004C257.769 250.594 257.421 255.965 257.429 263.573C257.106 276.657 254.56 286.498 245.304 296.065C238.08 302.788 229.378 305.759 219.624 305.589C203.462 304.371 188.348 291.591 175.081 283.249C169.546 279.769 163.992 276.321 158.429 272.886C141.267 262.276 124.17 251.568 107.159 240.718C102.258 237.593 97.3456 234.486 92.429 231.386C90.0894 229.908 87.7501 228.43 85.4109 226.953C83.6826 225.862 81.9537 224.771 80.2244 223.682C46.0679 204.336 46.0679 204.336 26.3696 172.032C23.6567 155.738 24.6867 139.072 34.3665 125.421C35.1399 124.413 35.1399 124.413 35.929 123.386C36.7314 122.21 36.7314 122.21 37.55 121.011C40.8903 117.325 44.798 114.956 48.9915 112.323C49.8776 111.757 50.7638 111.192 51.6768 110.609C54.422 108.859 57.1748 107.121 59.929 105.386C61.5542 104.355 63.1793 103.324 64.804 102.292C68.7249 99.8062 72.6528 97.3316 76.5833 94.8608C80.4722 92.4153 84.357 89.9633 88.2415 87.5107C89.0176 87.0208 89.7936 86.5309 90.5933 86.0261C97.6498 81.5684 104.69 77.0854 111.73 72.6015C120.781 66.8388 129.853 61.1093 138.929 55.3857C148.006 49.6615 157.079 43.9322 166.13 38.1679C167.989 36.9842 169.848 35.8013 171.708 34.6191C176.223 31.7489 180.733 28.8703 185.23 25.9717C186.9 24.9013 188.571 23.831 190.241 22.7607C191.36 22.0337 191.36 22.0337 192.501 21.292C211.638 9.07472 231.881 9.15719 248.292 26.2568Z" fill="#020100"/>
<path d="M13.9289 165.386C13.5989 165.386 13.2689 165.386 12.9289 165.386C12.3265 186.714 16.0298 205.405 30.2961 222.167C37.3593 229.628 45.266 234.975 53.9289 240.386C55.3644 241.295 56.7993 242.205 58.2336 243.116C61.3683 245.104 64.5085 247.083 67.6515 249.058C73.5353 252.76 79.3887 256.509 85.2414 260.261C93.2943 265.422 101.355 270.569 109.429 275.698C115.78 279.734 122.117 283.789 128.429 287.886C137.613 293.847 146.856 299.717 156.098 305.587C159.798 307.938 163.496 310.291 167.193 312.645C169.012 313.802 170.831 314.958 172.651 316.113C177.402 319.129 182.136 322.166 186.851 325.237C187.827 325.869 188.802 326.501 189.808 327.151C191.659 328.35 193.505 329.555 195.347 330.769C205.163 337.104 215.072 341.566 226.929 340.386C237.17 337.9 246.074 332.263 251.929 323.386C255.548 315.904 257.066 309.628 256.929 301.386C256.467 301.749 256.006 302.113 255.53 302.487C242.506 312.526 230.744 318.031 213.929 316.386C197.978 313.155 183.613 301.759 170.081 293.249C164.546 289.769 158.992 286.321 153.429 282.886C136.291 272.293 119.22 261.595 102.197 250.82C99.9359 249.39 97.6729 247.964 95.4093 246.538C90.5778 243.495 85.7522 240.442 80.9289 237.386C79.9508 236.766 78.9727 236.147 77.965 235.509C36.148 210.715 36.148 210.715 14.7414 169.05C14.4732 167.841 14.2051 166.631 13.9289 165.386Z" fill="#FA9D00"/>
<path d="M488.929 233.386C488.001 234.231 487.073 235.077 486.116 235.948C471.006 248.882 456.549 251.688 437.264 251.657C435.476 251.661 433.688 251.667 431.9 251.673C428.064 251.684 424.229 251.69 420.394 251.691C414.331 251.693 408.267 251.711 402.204 251.731C387.152 251.781 372.099 251.812 357.047 251.833C345.332 251.849 333.618 251.872 321.903 251.916C315.874 251.938 309.844 251.946 303.815 251.943C300.071 251.945 296.326 251.959 292.582 251.977C290.843 251.982 289.105 251.983 287.367 251.978C284.997 251.972 282.628 251.984 280.259 252C279.223 251.991 279.223 251.991 278.167 251.982C275.347 252.018 273.098 252.316 270.486 253.398C268.045 256.513 268.508 259.802 268.679 263.573C268.697 264.323 268.715 265.072 268.734 265.845C268.781 267.692 268.852 269.539 268.929 271.386C292.877 271.456 316.825 271.509 340.774 271.541C351.894 271.557 363.014 271.578 374.134 271.612C383.828 271.642 393.522 271.661 403.217 271.668C408.348 271.672 413.479 271.681 418.61 271.703C423.445 271.723 428.279 271.73 433.113 271.725C434.883 271.726 436.653 271.732 438.422 271.743C452.983 271.834 465.175 270.331 476.382 260.159C483.77 252.454 488.321 244.123 488.929 233.386Z" fill="#FE9F00"/>
<path d="M13.9291 165.386C13.5991 165.386 13.2691 165.386 12.9291 165.386C12.9291 171.656 12.9291 177.926 12.9291 184.386C13.2591 184.386 13.5891 184.386 13.9291 184.386C14.0735 183.478 14.2178 182.571 14.3666 181.636C14.8224 178.583 14.8224 178.583 15.5228 176.479C16.0206 173.914 15.6228 172.16 14.9916 169.636C14.7969 168.836 14.6023 168.037 14.4017 167.214C14.2458 166.611 14.0898 166.007 13.9291 165.386Z" fill="#BF7800"/>
</svg>
