<svg width="502" height="353" viewBox="0 0 502 353" fill="none" xmlns="http://www.w3.org/2000/svg">
<path d="M332.785 21.6816C338.658 25.5416 344.567 29.3139 350.582 32.9482C360.051 38.6719 369.371 44.6187 378.692 50.5786C383.36 53.5619 388.034 56.5365 392.707 59.5107C393.62 60.0917 394.533 60.6726 395.473 61.2712C403.701 66.506 411.945 71.7156 420.193 76.9179C422.549 78.4039 424.904 79.8907 427.258 81.3779C428.437 82.1226 428.437 82.1226 429.64 82.8823C431.22 83.8802 432.799 84.8786 434.378 85.8774C438.429 88.4387 442.485 90.9903 446.551 93.5263C472.454 109.705 491.887 126.019 499.657 156.581C504.582 179.988 499.08 202.681 486.539 222.519C484.636 225.246 482.643 227.826 480.52 230.386C479.646 231.465 479.646 231.465 478.754 232.565C470.923 241.256 460.291 247.136 450.52 253.386C449.625 253.96 448.73 254.534 447.808 255.125C443.295 258.018 438.772 260.895 434.243 263.761C428.217 267.573 422.211 271.415 416.207 275.261C414.647 276.26 414.647 276.26 413.055 277.279C409.876 279.314 406.698 281.35 403.52 283.386C390.631 291.641 377.738 299.889 364.821 308.102C357.943 312.476 351.073 316.866 344.207 321.261C343.175 321.92 342.143 322.58 341.08 323.26C336.191 326.387 331.306 329.52 326.435 332.676C324.743 333.772 323.05 334.866 321.357 335.958C319.241 337.325 317.127 338.696 315.017 340.071C300.009 349.746 286.145 355.206 268.137 351.733C255.272 347.82 244.175 339.892 237.664 327.995C234.261 320.783 232.388 315.414 232.422 307.433C232.424 306.442 232.424 306.442 232.427 305.432C232.432 303.333 232.445 301.234 232.457 299.136C232.462 297.709 232.467 296.282 232.471 294.854C232.482 291.365 232.499 287.875 232.52 284.386C231.155 284.388 231.155 284.388 229.763 284.391C207.585 284.436 185.407 284.469 163.229 284.489C152.504 284.5 141.778 284.514 131.053 284.537C121.7 284.557 112.347 284.569 102.994 284.574C98.0461 284.576 93.0981 284.583 88.1502 284.597C83.4832 284.611 78.8163 284.615 74.1493 284.612C72.4458 284.612 70.7424 284.616 69.039 284.624C48.0568 284.715 30.7403 282.215 14.5238 267.585C4.03532 256.676 0.217643 242.889 0.22937 228.215C0.222653 227.004 0.215936 225.794 0.209015 224.546C0.193318 221.24 0.186673 217.934 0.185394 214.628C0.183968 212.557 0.179666 210.485 0.174377 208.414C0.155898 201.171 0.147715 193.927 0.149292 186.684C0.150492 179.96 0.129426 173.236 0.0978088 166.513C0.0715434 160.718 0.060921 154.923 0.0621948 149.128C0.0627016 145.677 0.0571959 142.226 0.0358582 138.775C0.0161446 134.918 0.0220474 131.061 0.0340576 127.203C0.0228186 126.079 0.0115796 124.955 0 123.797C0.117106 108.908 6.21813 96.3114 16.2582 85.4873C25.7913 76.6292 37.9512 71.2338 50.9214 71.241C51.6693 71.2374 52.4172 71.2339 53.1877 71.2303C55.6949 71.2196 58.2021 71.2159 60.7094 71.2121C62.5064 71.2058 64.3034 71.1991 66.1005 71.1919C69.9708 71.1772 73.8411 71.1655 77.7114 71.1559C83.829 71.1405 89.9465 71.1165 96.064 71.091C113.46 71.0198 130.856 70.96 148.252 70.9089C157.859 70.8806 167.466 70.8453 177.073 70.8023C183.157 70.7755 189.241 70.7576 195.324 70.7462C199.106 70.7371 202.888 70.7197 206.669 70.7C208.425 70.6925 210.181 70.6885 211.937 70.688C214.331 70.687 216.725 70.6737 219.118 70.6575C220.165 70.6614 220.165 70.6614 221.233 70.6654C224.804 70.6273 227.537 70.4515 230.52 68.3857C231.793 65.8387 231.662 63.9933 231.696 61.1435C232.15 38.0704 232.15 38.0704 236.52 29.3857C236.943 28.5246 237.366 27.6635 237.801 26.7763C244.403 14.6732 254.666 6.64526 267.52 2.01071C293.085 -5.17293 312.268 8.18329 332.785 21.6816Z" fill="#FEC006"/>
<path d="M332.785 21.6816C338.658 25.5416 344.567 29.3139 350.582 32.9482C360.051 38.6719 369.371 44.6187 378.692 50.5786C383.36 53.5619 388.034 56.5365 392.707 59.5107C393.62 60.0917 394.533 60.6726 395.473 61.2712C403.701 66.506 411.945 71.7156 420.193 76.9179C422.549 78.4039 424.904 79.8907 427.258 81.3779C428.437 82.1226 428.437 82.1226 429.64 82.8823C431.22 83.8802 432.799 84.8786 434.378 85.8774C438.429 88.4387 442.485 90.9903 446.551 93.5263C472.454 109.705 491.887 126.019 499.657 156.581C504.582 179.988 499.08 202.681 486.539 222.519C484.636 225.246 482.643 227.826 480.52 230.386C479.646 231.465 479.646 231.465 478.754 232.565C470.923 241.256 460.291 247.136 450.52 253.386C449.625 253.96 448.73 254.534 447.808 255.125C443.295 258.018 438.772 260.895 434.243 263.761C428.217 267.573 422.211 271.415 416.207 275.261C414.647 276.26 414.647 276.26 413.055 277.279C409.876 279.314 406.698 281.35 403.52 283.386C390.631 291.641 377.738 299.889 364.821 308.102C357.943 312.476 351.073 316.866 344.207 321.261C343.175 321.92 342.143 322.58 341.08 323.26C336.191 326.387 331.306 329.52 326.435 332.676C324.743 333.772 323.05 334.866 321.357 335.958C319.241 337.325 317.127 338.696 315.017 340.071C300.009 349.746 286.145 355.206 268.137 351.733C255.272 347.82 244.175 339.892 237.664 327.995C234.261 320.783 232.388 315.414 232.422 307.433C232.424 306.442 232.424 306.442 232.427 305.432C232.432 303.333 232.445 301.234 232.457 299.136C232.462 297.709 232.467 296.282 232.471 294.854C232.482 291.365 232.499 287.875 232.52 284.386C231.155 284.388 231.155 284.388 229.763 284.391C207.585 284.436 185.407 284.469 163.229 284.489C152.504 284.5 141.778 284.514 131.053 284.537C121.7 284.557 112.347 284.569 102.994 284.574C98.0461 284.576 93.0981 284.583 88.1502 284.597C83.4832 284.611 78.8163 284.615 74.1493 284.612C72.4458 284.612 70.7424 284.616 69.039 284.624C48.0568 284.715 30.7403 282.215 14.5238 267.585C4.03532 256.676 0.217643 242.889 0.22937 228.215C0.222653 227.004 0.215936 225.794 0.209015 224.546C0.193318 221.24 0.186673 217.934 0.185394 214.628C0.183968 212.557 0.179666 210.485 0.174377 208.414C0.155898 201.171 0.147715 193.927 0.149292 186.684C0.150492 179.96 0.129426 173.236 0.0978088 166.513C0.0715434 160.718 0.060921 154.923 0.0621948 149.128C0.0627016 145.677 0.0571959 142.226 0.0358582 138.775C0.0161446 134.918 0.0220474 131.061 0.0340576 127.203C0.0228186 126.079 0.0115796 124.955 0 123.797C0.117106 108.908 6.21813 96.3114 16.2582 85.4873C25.7913 76.6292 37.9512 71.2338 50.9214 71.241C51.6693 71.2374 52.4172 71.2339 53.1877 71.2303C55.6949 71.2196 58.2021 71.2159 60.7094 71.2121C62.5064 71.2058 64.3034 71.1991 66.1005 71.1919C69.9708 71.1772 73.8411 71.1655 77.7114 71.1559C83.829 71.1405 89.9465 71.1165 96.064 71.091C113.46 71.0198 130.856 70.96 148.252 70.9089C157.859 70.8806 167.466 70.8453 177.073 70.8023C183.157 70.7755 189.241 70.7576 195.324 70.7462C199.106 70.7371 202.888 70.7197 206.669 70.7C208.425 70.6925 210.181 70.6885 211.937 70.688C214.331 70.687 216.725 70.6737 219.118 70.6575C220.165 70.6614 220.165 70.6614 221.233 70.6654C224.804 70.6273 227.537 70.4515 230.52 68.3857C231.793 65.8387 231.662 63.9933 231.696 61.1435C232.15 38.0704 232.15 38.0704 236.52 29.3857C236.943 28.5246 237.366 27.6635 237.801 26.7763C244.403 14.6732 254.666 6.64526 267.52 2.01071C293.085 -5.17293 312.268 8.18329 332.785 21.6816ZM253.157 26.2568C247.666 33.3982 244.422 41.2256 244.379 50.1826C244.36 51.3066 244.341 52.4307 244.321 53.5888C244.287 55.9376 244.269 58.2867 244.266 60.6357C244.133 66.7728 243.68 71.4724 240.369 76.7109C232.402 83.9279 223.025 82.9448 212.972 82.884C211.184 82.8878 209.396 82.8935 207.608 82.9007C203.768 82.9127 199.929 82.9122 196.089 82.9021C190.011 82.8865 183.934 82.9003 177.856 82.9182C166.049 82.949 154.242 82.9505 142.434 82.9485C127.412 82.9471 112.39 82.9575 97.3685 82.9971C91.3331 83.012 85.2981 83.0118 79.2628 82.9996C75.5005 82.9949 71.7383 83.0024 67.9761 83.0132C66.2387 83.0156 64.5013 83.0129 62.764 83.0046C47.5947 82.9364 35.884 84.9453 24.223 95.456C15.9605 104.122 12.3677 113.799 12.3746 125.592C12.3713 126.416 12.3679 127.241 12.3645 128.091C12.355 130.818 12.353 133.545 12.3519 136.272C12.3487 138.173 12.3453 140.074 12.3418 141.975C12.3358 145.962 12.334 149.949 12.3346 153.936C12.3347 159.029 12.3211 164.122 12.3038 169.215C12.2927 173.143 12.2907 177.072 12.2912 181C12.29 182.876 12.2856 184.753 12.2779 186.63C12.268 189.264 12.271 191.898 12.277 194.533C12.2714 195.298 12.2657 196.064 12.2599 196.853C12.3319 209.386 16.5449 220.09 25.1449 229.276C33.5704 236.759 43.0773 240.717 54.3311 240.631C55.4648 240.634 55.4649 240.634 56.6215 240.637C59.1377 240.643 61.6538 240.634 64.17 240.625C65.9807 240.626 67.7914 240.628 69.6021 240.631C73.4937 240.636 77.3852 240.635 81.2767 240.63C87.4334 240.622 93.59 240.633 99.7467 240.647C117.251 240.684 134.756 240.703 152.26 240.691C161.934 240.685 171.607 240.696 181.281 240.728C187.398 240.746 193.514 240.743 199.632 240.723C203.441 240.717 207.25 240.73 211.059 240.75C212.821 240.755 214.584 240.752 216.346 240.739C232.414 240.632 232.414 240.632 238.154 245.004C243.68 250.594 244.027 255.965 244.02 263.573C244.343 276.657 246.889 286.498 256.145 296.065C263.369 302.788 272.071 305.759 281.825 305.589C297.987 304.371 313.101 291.591 326.368 283.249C331.902 279.769 337.457 276.321 343.02 272.886C360.182 262.276 377.279 251.568 394.289 240.718C399.19 237.593 404.103 234.486 409.02 231.386C411.359 229.908 413.699 228.43 416.038 226.953C417.766 225.862 419.495 224.771 421.224 223.682C455.381 204.336 455.381 204.336 475.079 172.032C477.792 155.738 476.762 139.072 467.082 125.421C466.309 124.413 466.309 124.413 465.52 123.386C464.717 122.21 464.717 122.21 463.899 121.011C460.559 117.325 456.651 114.956 452.457 112.323C451.571 111.757 450.685 111.192 449.772 110.609C447.027 108.859 444.274 107.121 441.52 105.386C439.895 104.355 438.27 103.324 436.645 102.292C432.724 99.8062 428.796 97.3316 424.866 94.8608C420.977 92.4153 417.092 89.9633 413.207 87.5107C412.431 87.0208 411.655 86.5309 410.856 86.0261C403.799 81.5684 396.759 77.0854 389.719 72.6015C380.668 66.8388 371.596 61.1093 362.52 55.3857C353.443 49.6615 344.37 43.9322 335.319 38.1679C333.46 36.9842 331.6 35.8013 329.741 34.6191C325.225 31.7489 320.716 28.8703 316.219 25.9717C314.549 24.9013 312.878 23.831 311.207 22.7607C310.089 22.0337 310.089 22.0337 308.948 21.292C289.811 9.07472 269.568 9.15719 253.157 26.2568Z" fill="#020100"/>
<path d="M487.52 165.386C487.85 165.386 488.18 165.386 488.52 165.386C489.122 186.714 485.419 205.405 471.153 222.167C464.089 229.628 456.183 234.975 447.52 240.386C446.084 241.295 444.649 242.205 443.215 243.116C440.08 245.104 436.94 247.083 433.797 249.058C427.913 252.76 422.06 256.509 416.207 260.261C408.154 265.422 400.093 270.569 392.02 275.698C385.669 279.734 379.332 283.789 373.02 287.886C363.835 293.847 354.593 299.717 345.35 305.587C341.651 307.938 337.953 310.291 334.256 312.645C332.437 313.802 330.618 314.958 328.797 316.113C324.047 319.129 319.313 322.166 314.598 325.237C313.622 325.869 312.646 326.501 311.641 327.151C309.79 328.35 307.943 329.555 306.102 330.769C296.285 337.104 286.377 341.566 274.52 340.386C264.279 337.9 255.374 332.263 249.52 323.386C245.9 315.904 244.382 309.628 244.52 301.386C244.981 301.749 245.443 302.113 245.918 302.487C258.943 312.526 270.705 318.031 287.52 316.386C303.47 313.155 317.835 301.759 331.368 293.249C336.902 289.769 342.457 286.321 348.02 282.886C365.157 272.293 382.228 261.595 399.252 250.82C401.513 249.39 403.776 247.964 406.039 246.538C410.871 243.495 415.697 240.442 420.52 237.386C421.498 236.766 422.476 236.147 423.484 235.509C465.301 210.715 465.301 210.715 486.707 169.05C486.975 167.841 487.244 166.631 487.52 165.386Z" fill="#FA9D00"/>
<path d="M12.5199 233.386C13.448 234.231 14.3761 235.077 15.3324 235.948C30.4425 248.882 44.8994 251.688 64.1852 251.657C65.9731 251.661 67.761 251.667 69.5489 251.673C73.3843 251.684 77.2195 251.69 81.0549 251.691C87.1182 251.693 93.1815 251.711 99.2448 251.731C114.297 251.781 129.349 251.812 144.402 251.833C156.116 251.849 167.831 251.872 179.546 251.916C185.575 251.938 191.604 251.946 197.634 251.943C201.378 251.945 205.123 251.959 208.867 251.977C210.605 251.982 212.344 251.983 214.082 251.978C216.452 251.972 218.82 251.984 221.19 252C222.226 251.991 222.226 251.991 223.282 251.982C226.101 252.018 228.351 252.316 230.962 253.398C233.403 256.513 232.941 259.802 232.77 263.573C232.752 264.323 232.734 265.072 232.715 265.845C232.668 267.692 232.596 269.539 232.52 271.386C208.572 271.456 184.623 271.509 160.675 271.541C149.555 271.557 138.435 271.578 127.315 271.612C117.621 271.642 107.926 271.661 98.2319 271.668C93.1007 271.672 87.9696 271.681 82.8384 271.703C78.004 271.723 73.1697 271.73 68.3352 271.725C66.5656 271.726 64.796 271.732 63.0264 271.743C48.4653 271.834 36.2732 270.331 25.0668 260.159C17.6792 252.454 13.1277 244.123 12.5199 233.386Z" fill="#FE9F00"/>
<path d="M487.52 165.386C487.85 165.386 488.18 165.386 488.52 165.386C488.52 171.656 488.52 177.926 488.52 184.386C488.19 184.386 487.86 184.386 487.52 184.386C487.376 183.478 487.231 182.571 487.082 181.636C486.627 178.583 486.627 178.583 485.926 176.479C485.428 173.914 485.826 172.16 486.457 169.636C486.652 168.836 486.847 168.037 487.047 167.214C487.203 166.611 487.359 166.007 487.52 165.386Z" fill="#BF7800"/>
</svg>
